Video
ID                                       : 1
Format                                   : AVC
Format/Info                              : Advanced Video Codec
Format profile                           : High@L3.0
Format settings, CABAC                   : Yes
Format settings, ReFrames                : 4 frames
Codec ID                                 : avc1
Codec ID/Info                            : Advanced Video Coding
Duration                                 : 1h 19mn
Bit rate                                 : 1 143 Kbps
Maximum bit rate                         : 15.6 Mbps
Width                                    : 704 pixels
Height                                   : 544 pixels
Display aspect ratio                     : 1.882
Frame rate mode                          : Constant
Frame rate                               : 25.000 fps
Color space                              : YUV
Chroma subsampling                       : 4:2:0
Bit depth                                : 8 bits
Scan type                                : Progressive
Bits/(Pixel*Frame)                       : 0.119
Stream size                              : 653 MiB (93%)
Title                                    : Video
Writing library                          : x264

Audio
ID                                       : 2
Format                                   : AAC
Format/Info                              : Advanced Audio Codec
Format profile                           : HE-AAC / LC
Codec ID                                 : 40
Duration                                 : 1h 19mn
Bit rate mode                            : Variable
Bit rate                                 : 78.0 Kbps
Maximum bit rate                         : 106 Kbps
Channel(s)                               : 2 channels
Channel positions                        : Front: L R
Sampling rate                            : 48.0 KHz / 24.0 KHz
Compression mode                         : Lossy
Delay relative to video                  : 80ms
Stream size                              : 44.6 MiB (6%)
Language                                 : English
Subtitle                                 : Estonia (.SRT)



NIIPALJU VEEL, ET EESTI TÕLGE ON POOLIK :)

KUI KEEGI VIITSIB SIIS ÄKKI TEEB LÕPUNI!!!!!